<svg xmlns="http://www.w3.org/2000/svg" viewBox="0 0 330 330"><defs><style>.cls-1{fill:none;}.cls-2{fill:#dbdbdb;}</style></defs><title>img_loading</title><g id="图层_2" data-name="图层 2"><g id="图层_1-2" data-name="图层 1"><rect class="cls-1" width="330" height="330"/><path class="cls-2" d="M112.38,128.21a15.77,15.77,0,1,0,15.77-15.76,15.77,15.77,0,0,0-15.77,15.76Z"/><path class="cls-2" d="M238,107.51c-.08-.33-.16-.68-.26-1s-.2-.66-.31-1-.12-.33-.17-.48c-.18-.48-.36-1-.57-1.41-.28-.61-.59-1.22-.92-1.79-.17-.3-.35-.58-.53-.85s-.18-.28-.28-.41c-.28-.41-.57-.83-.88-1.22s-.43-.53-.64-.77c-.45-.51-.91-1-1.38-1.45a20.77,20.77,0,0,0-14.34-5.76H112.24a20.61,20.61,0,0,0-12,3.86l-.41.29c-.4.3-.79.61-1.17.94l-.38.33-.54.51-.36.36c-.41.41-.8.85-1.17,1.3-.09.13-.21.26-.31.39-.24.31-.49.64-.72,1a20.27,20.27,0,0,0-3.28,7.58.81.81,0,0,0,0,.19c-.06.34-.13.69-.18,1a22.49,22.49,0,0,0-.26,3.3V217.53a20.41,20.41,0,0,0,.48,4.44,20.75,20.75,0,0,0,5.41,10.19l.45.45c.29.29.61.57.92.85a23.13,23.13,0,0,0,2,1.53c.14.1.28.18.41.28.28.18.58.36.86.52l.44.25c.3.16.59.31.91.46a23,23,0,0,0,2.34,1l1,.31a20.73,20.73,0,0,0,3,.62,20.09,20.09,0,0,0,2.81.2H217.5c.59,0,1.17,0,1.74-.07a19.88,19.88,0,0,0,3.73-.6c.49-.13,1-.28,1.48-.45a19.2,19.2,0,0,0,2.34-1c.3-.14.61-.29.91-.46l.44-.24a21.68,21.68,0,0,0,4-3,3.19,3.19,0,0,0,.26-.26s.07-.05.08-.08c.36-.37.69-.73,1-1.1,0,0,0,0,.07-.07.19-.23.39-.46.57-.69s.41-.53.61-.81l.19-.27.15-.22a3.78,3.78,0,0,0,.22-.33l.19-.32a.86.86,0,0,1,.07-.1l.34-.59c.13-.25.27-.48.4-.73.21-.41.41-.83.59-1.26.08-.2.16-.38.23-.57.15-.37.28-.74.41-1.12s.18-.54.25-.82.18-.68.26-1c0-.15.06-.3.1-.46.06-.32.13-.63.18-1,0,0,0-.06,0-.11a6.76,6.76,0,0,0,.1-.77c0-.27.05-.53.08-.79,0-.53.07-1,.07-1.59V112.19a21.87,21.87,0,0,0-.56-4.68ZM204.4,157.64a10.66,10.66,0,0,0-15.07,0l-39.74,39.73-18.77-18.75a10.68,10.68,0,0,0-15.07,0l-13.84,13.84v-80a10.58,10.58,0,0,1,10.51-10.51H217.5A10.58,10.58,0,0,1,228,112.45v68.8Z"/></g></g></svg>