<?xml version="1.0" standalone="no"?><!DOCTYPE svg PUBLIC "-//W3C//DTD SVG 1.1//EN" "http://www.w3.org/Graphics/SVG/1.1/DTD/svg11.dtd"><svg t="1564995805664" class="icon" viewBox="0 0 1024 1024" version="1.1" xmlns="http://www.w3.org/2000/svg" p-id="1127" xmlns:xlink="http://www.w3.org/1999/xlink" width="200" height="200"><defs><style type="text/css"></style></defs><path d="M573.04 126.77a32.364 32.364 0 0 0-35.29 7L329.23 341.84H192.39c-42 0.04-76.03 34.09-76.06 76.08v192.56c0.05 41.99 34.08 76.01 76.06 76.06h136.95l208.67 203.92a32.33 32.33 0 0 0 22.63 9.23c17.88-0.02 32.36-14.52 32.37-32.4v-710.6c0.01-13.09-7.87-24.9-19.97-29.92zM696.65 318.89c-11.42-11.16-29.73-10.96-40.89 0.46-11.17 11.42-10.96 29.73 0.46 40.9a215.235 215.235 0 0 1 64.81 152.71A215.294 215.294 0 0 1 658 666.42a28.92 28.92 0 0 0-6.26 31.52 28.904 28.904 0 0 0 26.73 17.84c7.66 0 14.99-3.05 20.39-8.47 51.6-51.6 80.41-121.7 79.99-194.68a273.144 273.144 0 0 0-82.2-193.74z" p-id="1128"></path><path d="M786.33 226.64c-11.47-10.92-29.58-10.58-40.64 0.75-11.06 11.33-10.95 29.45 0.25 40.65 66.91 65.29 103.76 152.74 103.76 246.17 0 93.32-36.74 180.64-103.48 245.9-8.41 8.22-11 20.71-6.56 31.6a28.919 28.919 0 0 0 26.78 18.01 28.84 28.84 0 0 0 20.22-8.24A401.449 401.449 0 0 0 907.68 514c-0.07-108.24-43.82-211.85-121.35-287.36z" p-id="1129"></path></svg>