<svg xmlns="http://www.w3.org/2000/svg" viewBox="0 0 370 190"><defs><style>.cls-1{fill:#00bdff;}.cls-2{fill:#fcc800;}.cls-3{fill:aqua;}.cls-4{fill:#8cc63f;}.cls-5{fill:#00294c;}</style></defs><title>资源 1</title><g id="图层_2" data-name="图层 2"><g id="图层_1-2" data-name="图层 1"><path class="cls-1" d="M112.9,64.07c0-23.33,14.75-36.64,32-36.64s32,13.31,32,36.64c0,22.93-14.75,36.24-32,36.24S112.9,87,112.9,64.07Zm58.87,0c0-19.11-11.61-32.29-26.91-32.29S118.09,45,118.09,64.07,129.56,96,144.86,96,171.77,83.05,171.77,64.07Z"/><path class="cls-2" d="M179,64.07c0-23.33,15-36.64,32.37-36.64,9.84,0,16.26,4.35,21,8.7l-3.14,3.42c-4.78-4.35-10.52-7.77-17.9-7.77-15.16,0-27.18,13.18-27.18,32.29S195,96,211.35,96c7.93,0,14.89-3.69,20-8.3l2.87,3.43c-6,5.14-13.66,9.22-22.95,9.22C192.91,100.31,179,87,179,64.07Z"/><path class="cls-3" d="M227.23,64.07c0-22.67,15-36.64,31-36.64,16.66,0,27.18,11.46,27.18,32a29.6,29.6,0,0,1-.27,4.75H232.42c0,18.32,11.07,31.76,28,31.76a33,33,0,0,0,19.81-6.32l2.18,4.08c-5.46,3.16-11.61,6.59-22.26,6.59C242,100.31,227.23,86.74,227.23,64.07Zm53.41-4.22c0-18.85-8.88-28.07-22.4-28.07-12.84,0-24.32,10.54-25.82,28.07Z"/><path class="cls-4" d="M60.42,86.2l4.36-2.58C70,92.3,76.18,95.56,85,95.56c13.08,0,19.13-7.46,19.13-23.75V0h5.35V72.49c0,15.61-6.61,27.82-24.62,27.82C73.92,100.31,65.63,95.29,60.42,86.2Z"/><path class="cls-5" d="M27.84,179.71v.95H13.73c-1.79,4.51-5.37,7.37-12.79,9a4.06,4.06,0,0,0-.58-.86c7.09-1.45,10.57-4.05,12.32-8.09H0v-.95H13.08c1.1-3.19,1.36-7.21,1.49-12.24h1c-.17,5-.43,9-1.47,12.24ZM1.89,170.43H.94v-5.82H14.41a25.18,25.18,0,0,0-2.28-4.11l.91-.3a27.19,27.19,0,0,1,2.38,4.28l-.33.13H26.74v5.82h-.95v-4.87H1.89Zm1.2,3a22.92,22.92,0,0,1,5.3,4l-.62.79a24.86,24.86,0,0,0-5.3-4.15Zm7.45-.66a22.67,22.67,0,0,0-4.88-4l.65-.62a22,22,0,0,1,4.88,3.88Zm5.3,9.14a51.37,51.37,0,0,1,11.74,6.91l-.65.69a52.88,52.88,0,0,0-11.64-6.91Z"/><path class="cls-5" d="M58.45,187.73c0,1.15-.36,1.58-1.2,1.78a37.09,37.09,0,0,1-5.89.16,5.46,5.46,0,0,0-.39-1c2.73.07,5,0,5.66,0s.88-.23.88-.92v-8.48H46.81v10.33h-1V179.28H36.17c-.36,3.75-1.43,7.69-4,10.72a2.79,2.79,0,0,0-.69-.72c3.61-4.18,4-10,4-14.64v-12h23Zm-12.59-9.41v-7H36.4v3.29c0,1.15,0,2.4-.13,3.68ZM36.4,163.59v6.81h9.46v-6.81Zm10.41,0v6.81h10.7v-6.81Zm10.7,14.73v-7H46.81v7Z"/><path class="cls-5" d="M71.79,188.91a49.62,49.62,0,0,0-7.38-7.4l.81-.78a62.61,62.61,0,0,1,7.51,7.4Z"/><path class="cls-5" d="M86.46,171.32h4.16v1H86.46v1.32c1,1.41,3.51,5.39,4.1,6.44l-.82.73c-.48-1.09-2.18-3.95-3.28-5.76v14.84h-1v-15.2A41.84,41.84,0,0,1,81,185.23a5.76,5.76,0,0,0-.74-.95c1.85-2.6,3.9-7.73,4.87-12H80.44v-1h5v-11h1Zm-3.25-1.74a30.38,30.38,0,0,0-2.09-6.94l.85-.2a33,33,0,0,1,2.11,6.91Zm4.35-.07a56,56,0,0,0,2.54-7.17l1,.36a69.22,69.22,0,0,1-2.8,7.14Zm22.32,1.38v1H92.05v-1h8.26v-3.06h-6.5v-1h6.5v-2.76H93v-1h7.31v-3h1v3h7.8v1h-7.8v2.76h7.09v1h-7.09v3.06Zm-2.41,17.4c0,.76-.2,1.08-.75,1.28a16.44,16.44,0,0,1-3.77.2,5.94,5.94,0,0,0-.39-1c1.69,0,3.06,0,3.45,0s.52-.14.52-.5v-4.27H95.44v5.69h-1V174.51h13Zm-12-12.83v3.32h11.09v-3.32Zm11.09,7.63v-3.35H95.44v3.35Z"/><path class="cls-5" d="M128.26,184.7c-5.44,1.16-11.13,2.31-15,3.1l-.23-1,7.06-1.38v-6.74h-6.28v-1h6.28v-4.5H121v4.5h6.41v1H121v6.54l7.16-1.45Zm-14.64-13.45c.45-.06.91-.62,1.46-1.41a37.36,37.36,0,0,0,3.65-6.25h-5.24v-1H127.7v1h-7.87a44,44,0,0,1-4.55,7.47l9.37-.89a42,42,0,0,0-2.67-3.72l.81-.43a34,34,0,0,1,4.13,6.29l-.84.55a19.13,19.13,0,0,0-1-1.84c-9.66.92-10.6,1.06-11.16,1.25A4.57,4.57,0,0,0,113.62,171.25Zm25.89-3.84c-.81,5.88-2.12,10.52-4.29,14.2a18,18,0,0,0,7.31,7.3,3.45,3.45,0,0,0-.74.79,19.18,19.18,0,0,1-7.13-7.2,21.16,21.16,0,0,1-8.29,7.34,3.59,3.59,0,0,0-.68-.83,19.3,19.3,0,0,0,8.45-7.46A43.76,43.76,0,0,1,130,169.77a31.68,31.68,0,0,1-2.9,5.86,7.08,7.08,0,0,0-.74-.69c2.44-3.65,4.23-9.11,5.33-14.74l1,.2c-.43,2.07-1,4.11-1.53,6h11.19v1Zm-8.68,0-.3.78a45.93,45.93,0,0,0,4.13,12.44c1.92-3.49,3.09-7.86,3.81-13.22Z"/><path class="cls-5" d="M153.53,160.4c-.55,1.64-1.2,3.62-1.79,5h5.82v20.85h-9.43v2.83h-.94V165.43h3.58a36.73,36.73,0,0,0,1.72-5.36Zm3.09,6h-8.49v8.55h8.49Zm0,18.94v-9.44h-8.49v9.44Zm17-19.11c-.56,15.43-1.08,20.39-2.34,21.87a2.48,2.48,0,0,1-2.09.89c-1,0-2.83,0-4.58-.16a2.52,2.52,0,0,0-.33-1c2.15.16,4.1.2,4.78.2s1.05-.07,1.34-.5c1.1-1.18,1.69-6.34,2.24-21.08h-9.76a27.34,27.34,0,0,1-3.22,6.38,4.42,4.42,0,0,0-.87-.49c2.31-3.09,4-7.66,5-12.43l1,.19a50.05,50.05,0,0,1-1.53,5.4H173.6Zm-5.76,14.54a50.12,50.12,0,0,0-5.46-7.7l.78-.46a53.81,53.81,0,0,1,5.49,7.6Z"/><path class="cls-5" d="M187.81,178c-.52-1-2.14-3.52-3.18-5v16.91h-.95V173.33a39.8,39.8,0,0,1-5,10.09,6.59,6.59,0,0,0-.68-.72,38.59,38.59,0,0,0,5.69-12h-5.23v-.95h5.23v-6.81c-1.52.4-3.12.76-4.58,1a4,4,0,0,0-.39-.82,40.83,40.83,0,0,0,8.94-2.53l.81.72a20.13,20.13,0,0,1-3.83,1.38v7h4.29v.95h-4.29v1c.81,1.06,3.35,4.61,3.93,5.5Zm19.32-2.57c-2.89,8.65-10.7,12.79-18.54,14.5a3.31,3.31,0,0,0-.55-.88,29.38,29.38,0,0,0,11.22-4.58,25.64,25.64,0,0,0-4.45-4l.71-.53a23.23,23.23,0,0,1,4.52,3.88,18.1,18.1,0,0,0,5.83-7.76h-7.94a27.29,27.29,0,0,1-7.64,5.52,3.16,3.16,0,0,0-.72-.69,23.4,23.4,0,0,0,10.28-9l1.14.2a21.07,21.07,0,0,1-2.18,3h7.51l.2-.06ZM205,163.89c-2.76,5.82-9.3,9.21-15.41,10.78a2.88,2.88,0,0,0-.55-.79,29,29,0,0,0,8.16-3.25,24.16,24.16,0,0,0-3.77-3.09l.68-.53a23.56,23.56,0,0,1,4,3.13,16.09,16.09,0,0,0,5.53-5.66h-8.1a24.81,24.81,0,0,1-5.5,4.08,2.76,2.76,0,0,0-.75-.66,20.7,20.7,0,0,0,8.46-7.73l1.07.16a19.16,19.16,0,0,1-2.34,3.19h7.68v0h.09l.2-.07Z"/><path class="cls-5" d="M224.21,185.63c-.19-.79-.52-1.71-.88-2.77-10,1.91-10.89,2.14-11.48,2.47v0a5.27,5.27,0,0,0-.35-1.06c.42-.09.87-1.11,1.39-2.4A67.94,67.94,0,0,0,216,172h-5v-.95h14.22V172h-8.23a68.23,68.23,0,0,1-3.87,11.84l10-1.9c-.68-2-1.56-4.25-2.31-6.12l.85-.23c1.33,3.12,2.86,7.27,3.58,9.6Zm.33-21.61H212.18v-1h12.36Zm15,4.93c-.49,13.78-1,18.29-2.11,19.64a2.64,2.64,0,0,1-2.09.82c-.94,0-2.83,0-4.65-.2a2.86,2.86,0,0,0-.29-1c2.11.19,4.13.19,4.81.19a1.41,1.41,0,0,0,1.34-.42c1-1.06,1.53-5.69,2-18.85h-6.44c-.45,8-1.82,16-6.79,20.62a3.1,3.1,0,0,0-.91-.56c4.87-4.27,6.34-12.26,6.79-20.06h-5.56v-1h5.6c.13-2.57.16-5.1.16-7.47h.94c0,2.4-.06,4.94-.16,7.47h7.35Z"/><path class="cls-5" d="M254.59,182.27l.1.92c-3.94,1.12-8,2.24-11,3.06l-.33-1c1.63-.39,3.75-.95,6.12-1.58.88-3.68,1.92-10.09,2.44-14.37l1,.26c-.61,4.25-1.59,10.1-2.5,13.85Zm-.29-14.5H243.44v-1H254.3Zm-7.74,14.7a85.77,85.77,0,0,0-1.82-12.63l.91-.17a86.26,86.26,0,0,1,1.82,12.67Zm2.86-16.61a37.25,37.25,0,0,0-2.44-5l.88-.33a27,27,0,0,1,2.44,4.93Zm14.25,7.37c-.33,1.35-.59,2.86-.88,4h8.81v11.41c0,.62-.13.89-.58,1a9.16,9.16,0,0,1-2.8.2,3.75,3.75,0,0,0-.45-.86,24,24,0,0,0,2.5,0c.29,0,.39-.1.39-.39V178.16h-4.29v11.18h-.95V178.16H261.2v11.28h-.95V178.16h-4.06v11.68h-.95V177.21h6.61c.26-1.12.58-2.73.78-4h-8.69v-1h18.48v1Zm7.51-4.18H255.6v-7.17h.94v6.22h6v-7.9h1v7.9h6.7v-6.22h.94Z"/><path class="cls-5" d="M286.83,177.7a5.61,5.61,0,0,0,.1.89c-9.21,2-10.15,2.2-10.67,2.5a7.29,7.29,0,0,0-.39-1.09,7.25,7.25,0,0,0,2.57-2.2c.74-.82,2.66-3.06,4.62-5.76-5.83.86-6.61,1-7,1.25a6.52,6.52,0,0,0-.36-1.08c.52-.1,1.14-1,1.92-2.14A58.28,58.28,0,0,0,283,160.3l1,.46a67.77,67.77,0,0,1-6.47,11.09l6.27-.83c.82-1.18,1.69-2.43,2.41-3.68l1,.46a79.46,79.46,0,0,1-9,11.64Zm.19,6.81c-4,1-8.1,2-11.06,2.76l-.22-1c2.76-.59,7-1.64,11.22-2.63Zm17.92,3.55V189h-18.8v-.95h3.75V161.85h12v26.21ZM290.83,162.8v7.57H301V162.8Zm0,16.35H301v-7.83H290.83Zm0,8.91H301v-8H290.83Z"/><path class="cls-5" d="M317.05,160.56a45.5,45.5,0,0,1-3.32,7.27v21.94h-.94V169.48a36.88,36.88,0,0,1-4,5.49,4.94,4.94,0,0,0-.71-.76,41,41,0,0,0,8.07-13.91Zm20.06,17.5h-9.4v11.81h-.94V178.06h-9.89v-.95h9.89v-8.85h-6.34a25.68,25.68,0,0,1-2.67,5.76,9.52,9.52,0,0,0-.81-.6c2.05-2.86,3.38-7.17,4.13-11.74l.94.17a52.61,52.61,0,0,1-1.3,5.46h6v-6.75h.94v6.75h8.1v.95h-8.1v8.85h9.4Z"/><path class="cls-5" d="M344.3,164.71v8.75c0,4.86-.35,11.67-3,16.54a2.13,2.13,0,0,0-.78-.56c2.6-4.77,2.86-11.25,2.86-16v-9.71h13.37a20.34,20.34,0,0,0-2.05-3l.78-.43a16.94,16.94,0,0,1,2.41,3.42h12v1ZM370,183.85H359.92v6H359v-6H346.32v-.95H359V178h-6.4c-1.83,0-2.57.17-2.9.43a4,4,0,0,0-.32-1c.45-.06,1-.89,1.66-2a48.16,48.16,0,0,0,2.53-4.71h-6.21v-.95H354c.52-1.12,1-2.33,1.43-3.49l.94.43c-.42,1-.91,2.07-1.39,3.06h13.3v.95H354.58A58.91,58.91,0,0,1,351,177H359v-4.18h.95V177h8v1h-8v4.94H370Z"/></g></g></svg>