<?xml version="1.0" encoding="utf-8"?>
<!-- Generator: Adobe Illustrator 22.0.1, SVG Export Plug-In . SVG Version: 6.00 Build 0)  -->
<svg version="1.1" id="图层_1" xmlns="http://www.w3.org/2000/svg" xmlns:xlink="http://www.w3.org/1999/xlink" x="0px" y="0px"
	 viewBox="0 0 370 190" style="enable-background:new 0 0 370 190;" xml:space="preserve">
<style type="text/css">
	.st0{fill:#00294C;}
	.st1{fill:#CC915C;}
	.st2{fill:#5B5B5B;}
</style>
<title>资源 1</title>
<g id="图层_2_1_">
	<g id="图层_1-2">
		<path class="st0" d="M27.8,179.7v0.9H13.7c-1.8,4.5-5.4,7.4-12.8,9c-0.2-0.3-0.4-0.6-0.6-0.9c7.1-1.4,10.6-4.1,12.3-8.1H0v-0.9
			h13.1c1.1-3.2,1.4-7.2,1.5-12.2h1c-0.2,5-0.4,9-1.5,12.2L27.8,179.7z M1.9,170.4H0.9v-5.8h13.5c-0.6-1.4-1.4-2.8-2.3-4.1l0.9-0.3
			c0.9,1.4,1.7,2.8,2.4,4.3l-0.3,0.1h11.6v5.8h-1v-4.9H1.9V170.4z M3.1,173.4c2,1.1,3.7,2.4,5.3,4l-0.6,0.8c-1.6-1.6-3.4-3-5.3-4.1
			L3.1,173.4z M10.5,172.8c-1.4-1.6-3.1-2.9-4.9-4l0.7-0.6c1.8,1.1,3.4,2.4,4.9,3.9L10.5,172.8z M15.8,181.9
			c4.2,1.8,8.2,4.1,11.7,6.9l-0.6,0.7c-3.6-2.8-7.5-5.1-11.6-6.9L15.8,181.9z"/>
		<path class="st0" d="M58.5,187.7c0,1.1-0.4,1.6-1.2,1.8c-2,0.2-3.9,0.3-5.9,0.2c-0.1-0.3-0.2-0.7-0.4-1c2.7,0.1,5,0,5.7,0
			s0.9-0.2,0.9-0.9v-8.5H46.8v10.3h-1v-10.3h-9.6c-0.4,3.8-1.4,7.7-4,10.7c-0.2-0.3-0.4-0.5-0.7-0.7c3.6-4.2,4-10,4-14.6v-12h23
			L58.5,187.7z M45.9,178.3v-7h-9.5v3.3c0,1.1,0,2.4-0.1,3.7L45.9,178.3z M36.4,163.6v6.8h9.5v-6.8H36.4z M46.8,163.6v6.8h10.7v-6.8
			H46.8z M57.5,178.3v-7H46.8v7H57.5z"/>
		<path class="st0" d="M71.8,188.9c-2.2-2.7-4.7-5.2-7.4-7.4l0.8-0.8c2.7,2.3,5.2,4.7,7.5,7.4L71.8,188.9z"/>
		<path class="st0" d="M86.5,171.3h4.2v1h-4.2v1.3c1,1.4,3.5,5.4,4.1,6.4l-0.8,0.7c-0.5-1.1-2.2-3.9-3.3-5.8v14.8h-1v-15.2
			c-1,3.7-2.5,7.2-4.5,10.5c-0.2-0.3-0.5-0.7-0.7-0.9c1.8-2.6,3.9-7.7,4.9-12h-4.7v-1h5v-11h1L86.5,171.3z M83.2,169.6
			c-0.4-2.4-1.1-4.7-2.1-6.9l0.8-0.2c1,2.2,1.7,4.5,2.1,6.9L83.2,169.6z M87.6,169.5c1-2.3,1.9-4.7,2.5-7.2l1,0.4
			c-0.8,2.4-1.7,4.8-2.8,7.1L87.6,169.5z M109.9,170.9v1H92.1v-1h8.3v-3.1h-6.5v-1h6.5v-2.8H93v-1h7.3v-3h1v3h7.8v1h-7.8v2.8h7.1v1
			h-7.1v3.1H109.9z M107.5,188.3c0,0.8-0.2,1.1-0.8,1.3c-1.2,0.2-2.5,0.3-3.8,0.2c-0.1-0.3-0.2-0.7-0.4-1c1.7,0,3.1,0,3.4,0
			s0.5-0.1,0.5-0.5V184H95.4v5.7h-1v-15.2h13L107.5,188.3z M95.5,175.5v3.3h11.1v-3.3H95.5z M106.6,183.1v-3.4H95.4v3.4H106.6z"/>
		<path class="st0" d="M128.3,184.7c-5.4,1.2-11.1,2.3-15,3.1l-0.2-1l7.1-1.4v-6.7h-6.3v-1h6.3v-4.5h0.9v4.5h6.4v1H121v6.5l7.2-1.4
			L128.3,184.7z M113.6,171.2c0.4-0.1,0.9-0.6,1.5-1.4c1.4-2,2.6-4.1,3.7-6.2h-5.2v-1h14.2v1h-7.9c-1.3,2.6-2.8,5.1-4.6,7.5l9.4-0.9
			c-0.8-1.3-1.7-2.5-2.7-3.7l0.8-0.4c1.6,1.9,3,4,4.1,6.3l-0.8,0.6c-0.3-0.6-0.6-1.2-1-1.8c-9.7,0.9-10.6,1.1-11.2,1.2
			C113.9,171.9,113.8,171.6,113.6,171.2z M139.5,167.4c-0.8,5.9-2.1,10.5-4.3,14.2c1.7,3.1,4.2,5.6,7.3,7.3
			c-0.3,0.2-0.5,0.5-0.7,0.8c-3-1.7-5.4-4.2-7.1-7.2c-2.1,3.1-4.9,5.7-8.3,7.3c-0.2-0.3-0.4-0.6-0.7-0.8c3.5-1.6,6.4-4.2,8.4-7.5
			c-1.9-3.7-3.3-7.7-4.1-11.8c-0.8,2-1.7,4-2.9,5.9c-0.2-0.2-0.5-0.5-0.7-0.7c2.4-3.6,4.2-9.1,5.3-14.7l1,0.2c-0.4,2.1-1,4.1-1.5,6
			h11.2v1L139.5,167.4z M130.8,167.4l-0.3,0.8c0.8,4.3,2.2,8.5,4.1,12.4c1.9-3.5,3.1-7.9,3.8-13.2H130.8z"/>
		<path class="st0" d="M153.5,160.4c-0.6,1.6-1.2,3.6-1.8,5h5.8v20.9h-9.4v2.8h-0.9v-23.7h3.6c0.7-1.7,1.3-3.5,1.7-5.4L153.5,160.4z
			 M156.6,166.4h-8.5v8.6h8.5V166.4z M156.6,185.3v-9.4h-8.5v9.4H156.6z M173.6,166.2c-0.6,15.4-1.1,20.4-2.3,21.9
			c-0.5,0.6-1.3,0.9-2.1,0.9c-1,0-2.8,0-4.6-0.2c0-0.4-0.2-0.7-0.3-1c2.1,0.2,4.1,0.2,4.8,0.2s1.1-0.1,1.3-0.5
			c1.1-1.2,1.7-6.3,2.2-21.1h-9.8c-0.8,2.3-1.9,4.4-3.2,6.4c-0.3-0.2-0.6-0.4-0.9-0.5c2.3-3.1,4-7.7,5-12.4l1,0.2
			c-0.4,1.8-0.9,3.6-1.5,5.4h10.3L173.6,166.2z M167.9,180.8c-1.6-2.7-3.4-5.3-5.5-7.7l0.8-0.5c2,2.4,3.9,4.9,5.5,7.6L167.9,180.8z"
			/>
		<path class="st0" d="M187.8,178c-0.5-1-2.1-3.5-3.2-5v16.9h-0.9v-16.6c-1.2,3.6-2.9,7-5,10.1c-0.2-0.3-0.4-0.5-0.7-0.7
			c2.6-3.6,4.5-7.7,5.7-12h-5.2v-0.9h5.2v-6.8c-1.5,0.4-3.1,0.8-4.6,1c-0.1-0.3-0.2-0.6-0.4-0.8c3.1-0.5,6.1-1.3,8.9-2.5l0.8,0.7
			c-1.2,0.6-2.5,1.1-3.8,1.4v7h4.3v0.9h-4.3v1c0.8,1.1,3.4,4.6,3.9,5.5L187.8,178z M207.1,175.4c-2.9,8.6-10.7,12.8-18.5,14.5
			c-0.1-0.3-0.3-0.6-0.6-0.9c4-0.7,7.8-2.3,11.2-4.6c-1.3-1.5-2.8-2.8-4.4-4l0.7-0.5c1.7,1.1,3.2,2.4,4.5,3.9c2.6-2,4.6-4.7,5.8-7.8
			h-7.9c-2.2,2.3-4.8,4.1-7.6,5.5c-0.2-0.3-0.4-0.5-0.7-0.7c4.2-1.9,7.8-5,10.3-9l1.1,0.2c-0.6,1.1-1.4,2.1-2.2,3h7.5l0.2-0.1
			L207.1,175.4z M205,163.9c-2.8,5.8-9.3,9.2-15.4,10.8c-0.1-0.3-0.3-0.6-0.6-0.8c2.9-0.7,5.6-1.8,8.2-3.2c-1.1-1.2-2.4-2.2-3.8-3.1
			l0.7-0.5c1.4,0.9,2.8,1.9,4,3.1c2.3-1.4,4.2-3.3,5.5-5.7h-8.1c-1.6,1.6-3.5,3-5.5,4.1c-0.2-0.3-0.5-0.5-0.8-0.7
			c3.5-1.7,6.4-4.4,8.5-7.7l1.1,0.2c-0.7,1.1-1.5,2.2-2.3,3.2h7.7l0,0h0.1l0.2-0.1L205,163.9z"/>
		<path class="st0" d="M224.2,185.6c-0.2-0.8-0.5-1.7-0.9-2.8c-10,1.9-10.9,2.1-11.5,2.5l0,0c-0.1-0.4-0.2-0.7-0.4-1.1
			c0.4-0.1,0.9-1.1,1.4-2.4c1.3-3.2,2.3-6.5,3.1-9.9h-5v-0.9h14.2v0.9H217c-0.9,4.1-2.2,8-3.9,11.8l10-1.9c-0.7-2-1.6-4.2-2.3-6.1
			l0.9-0.2c1.3,3.1,2.9,7.3,3.6,9.6L224.2,185.6z M224.5,164h-12.4v-1h12.4L224.5,164z M239.5,168.9c-0.5,13.8-1,18.3-2.1,19.6
			c-0.5,0.6-1.3,0.9-2.1,0.8c-0.9,0-2.8,0-4.6-0.2c0-0.3-0.1-0.7-0.3-1c2.1,0.2,4.1,0.2,4.8,0.2c0.5,0.1,1-0.1,1.3-0.4
			c1-1.1,1.5-5.7,2-18.9h-6.4c-0.4,8-1.8,16-6.8,20.6c-0.3-0.2-0.6-0.4-0.9-0.6c4.9-4.3,6.3-12.3,6.8-20.1h-5.6v-1h5.6
			c0.1-2.6,0.2-5.1,0.2-7.5h0.9c0,2.4-0.1,4.9-0.2,7.5h7.4L239.5,168.9z"/>
		<path class="st0" d="M254.6,182.3l0.1,0.9c-3.9,1.1-8,2.2-11,3.1l-0.3-1c1.6-0.4,3.8-0.9,6.1-1.6c0.9-3.7,1.9-10.1,2.4-14.4l1,0.3
			c-0.6,4.2-1.6,10.1-2.5,13.9L254.6,182.3z M254.3,167.8h-10.9v-1h10.9V167.8z M246.6,182.5c-0.3-4.2-0.9-8.5-1.8-12.6l0.9-0.2
			c0.9,4.2,1.5,8.4,1.8,12.7L246.6,182.5z M249.4,165.9c-0.7-1.7-1.5-3.4-2.4-5l0.9-0.3c1,1.6,1.8,3.2,2.4,4.9L249.4,165.9z
			 M263.7,173.2c-0.3,1.4-0.6,2.9-0.9,4h8.8v11.4c0,0.6-0.1,0.9-0.6,1c-0.9,0.2-1.9,0.3-2.8,0.2c-0.1-0.3-0.3-0.6-0.5-0.9
			c0.8,0,1.7,0,2.5,0c0.3,0,0.4-0.1,0.4-0.4v-10.4h-4.3v11.2h-1v-11.2h-4.2v11.3h-1v-11.3h-4.1v11.7h-0.9v-12.6h6.6
			c0.3-1.1,0.6-2.7,0.8-4h-8.7v-1h18.5v1L263.7,173.2z M271.2,169.1h-15.6v-7.2h0.9v6.2h6v-7.9h1v7.9h6.7v-6.2h0.9L271.2,169.1z"/>
		<path class="st0" d="M286.8,177.7c0,0.3,0,0.6,0.1,0.9c-9.2,2-10.1,2.2-10.7,2.5c-0.1-0.4-0.2-0.7-0.4-1.1c1-0.5,1.9-1.3,2.6-2.2
			c0.7-0.8,2.7-3.1,4.6-5.8c-5.8,0.9-6.6,1-7,1.2c-0.1-0.4-0.2-0.7-0.4-1.1c0.5-0.1,1.1-1,1.9-2.1c2.1-3.1,3.9-6.3,5.4-9.8l1,0.5
			c-1.8,3.9-4,7.6-6.5,11.1l6.3-0.8c0.8-1.2,1.7-2.4,2.4-3.7l1,0.5c-2.6,4.2-5.6,8-9,11.6L286.8,177.7z M287,184.5
			c-4,1-8.1,2-11.1,2.8l-0.2-1c2.8-0.6,7-1.6,11.2-2.6L287,184.5z M304.9,188.1v0.9h-18.8v-0.9h3.8v-26.2h12v26.2H304.9z
			 M290.8,162.8v7.6H301v-7.6H290.8z M290.8,179.2H301v-7.8h-10.2V179.2z M290.8,188.1H301v-8h-10.2V188.1z"/>
		<path class="st0" d="M317,160.6c-0.9,2.5-2,4.9-3.3,7.3v21.9h-0.9v-20.3c-1.2,1.9-2.5,3.8-4,5.5c-0.2-0.3-0.4-0.5-0.7-0.8
			c3.6-4.1,6.3-8.8,8.1-13.9L317,160.6z M337.1,178.1h-9.4v11.8h-0.9v-11.8h-9.9v-0.9h9.9v-8.9h-6.3c-0.6,2-1.5,4-2.7,5.8
			c-0.3-0.2-0.5-0.4-0.8-0.6c2-2.9,3.4-7.2,4.1-11.7l0.9,0.2c-0.3,1.8-0.8,3.7-1.3,5.5h6v-6.8h0.9v6.8h8.1v0.9h-8.1v8.9h9.4
			L337.1,178.1z"/>
		<path class="st0" d="M344.3,164.7v8.8c0,4.9-0.4,11.7-3,16.5c-0.2-0.2-0.5-0.4-0.8-0.6c2.6-4.8,2.9-11.2,2.9-16v-9.7h13.4
			c-0.6-1.1-1.3-2.1-2-3l0.8-0.4c0.9,1,1.8,2.2,2.4,3.4h12v1L344.3,164.7z M370,183.9h-10.1v6H359v-6h-12.7v-0.9H359V178h-6.4
			c-1.8,0-2.6,0.2-2.9,0.4c-0.1-0.3-0.2-0.7-0.3-1c0.5-0.1,1-0.9,1.7-2c0.9-1.5,1.8-3.1,2.5-4.7h-6.2v-0.9h6.6
			c0.5-1.1,1-2.3,1.4-3.5l0.9,0.4c-0.4,1-0.9,2.1-1.4,3.1h13.3v0.9h-13.7c-1.1,2.2-2.3,4.3-3.6,6.3h8v-4.2h1v4.2h8v1h-8v4.9h10
			V183.9z"/>
		<g>
			<path class="st1" d="M79.9,67.9v30.6c0,4.7-1.3,8.5-3.9,11.5c-2.6,3-6,4.5-10,4.5c-1.3,0-2.7-0.3-4.2-0.8v-13.1
				c0.7,0.3,1.3,0.4,1.9,0.4c1.8,0,2.7-1.4,2.7-4.3V67.9H79.9z"/>
			<path class="st1" d="M118.8,91l14.2,0.4c-1,7.5-3.6,13.2-7.8,17.2c-4.2,4-9.6,5.9-16.2,5.9c-6.9,0-12.7-2.2-17.2-6.7
				c-4.6-4.5-6.8-10.1-6.8-16.9c0-6.8,2.3-12.5,7-17.2c4.7-4.6,10.5-6.9,17.4-6.9c5.9,0,10.9,1.7,15.1,5.2c4.2,3.4,7,8.4,8.4,14.8
				l-14.6,1c-1.6-5-4.7-7.6-9.3-7.6c-2.9,0-5.3,1-7.2,3c-1.9,2-2.9,4.5-2.9,7.6c0,3,0.9,5.4,2.8,7.3c1.9,1.9,4.2,2.9,7,2.9
				C114.7,101.1,118,97.7,118.8,91z"/>
			<path class="st1" d="M149.7,67.9v13.1h5.6v13.3h-5.6c0,2.7,0.4,4.5,1.2,5.5c0.8,1,2.4,1.5,4.6,1.5v13.2c-5.8,0-10.3-1.6-13.5-4.9
				c-3.3-3.3-4.9-7.9-4.9-13.9V67.9H149.7z"/>
			<path class="st1" d="M301.2,67.9v45.8h-12.6V67.9H301.2z"/>
		</g>
		<path class="st1" d="M277.3,74.5c-8.4-15.2-32.1-26.2-58.1-21.1c-56.2,11-61.8,61.1-61.8,61.1l22.7-0.1c-2.6-1.3-6.1-4.5-4.7-12.6
			l2.4-14.2c0.1-0.6,0.3-1.2,0.6-1.8c1.2-2.3,5-8.2,11.8-8.6c8.5-0.5,66.5,0,66.5,0s10.8-1.2,10.1,10.6c-0.7,11.8-2.4,16.6-2.4,16.6
			s-1.7,6.9-8.6,9.7l27.6-0.1C283.4,114,288.4,94.7,277.3,74.5z"/>
		<g>
			<path class="st2" d="M200.5,82.4c2.9,0,5.6,0.7,8.2,2.2c2.5,1.4,4.5,3.4,6,5.9c1.5,2.5,2.2,5.2,2.2,8.1c0,2.9-0.7,5.6-2.2,8.1
				c-1.5,2.5-3.5,4.5-6,5.9c-2.5,1.4-5.2,2.2-8.2,2.2c-2.9,0-5.6-0.7-8.2-2.2c-2.5-1.4-4.5-3.4-6-5.9c-1.5-2.5-2.2-5.2-2.2-8.1
				c0-2.9,0.7-5.6,2.2-8.1c1.5-2.5,3.5-4.5,6-5.9C194.9,83.1,197.6,82.4,200.5,82.4z M200.5,105.7c2,0,3.7-0.7,5.1-2.1
				s2.1-3.1,2.1-5c0-2-0.7-3.6-2.1-5.1c-1.4-1.4-3.1-2.1-5.1-2.1c-2,0-3.6,0.7-5.1,2.1c-1.4,1.4-2.1,3.1-2.1,5.1c0,2,0.7,3.6,2.1,5
				S198.5,105.7,200.5,105.7z"/>
			<path class="st2" d="M235.6,82.4c2.9,0,5.6,0.7,8.2,2.2c2.5,1.4,4.5,3.4,6,5.9c1.5,2.5,2.2,5.2,2.2,8.1c0,2.9-0.7,5.6-2.2,8.1
				c-1.5,2.5-3.5,4.5-6,5.9c-2.5,1.4-5.2,2.2-8.2,2.2c-2.9,0-5.6-0.7-8.2-2.2s-4.5-3.4-6-5.9c-1.5-2.5-2.2-5.2-2.2-8.1
				c0-2.9,0.7-5.6,2.2-8.1c1.5-2.5,3.5-4.5,6-5.9S232.7,82.4,235.6,82.4z M235.6,105.7c2,0,3.7-0.7,5.1-2.1s2.1-3.1,2.1-5
				c0-2-0.7-3.6-2.1-5.1c-1.4-1.4-3.1-2.1-5.1-2.1c-2,0-3.6,0.7-5.1,2.1c-1.4,1.4-2.1,3.1-2.1,5.1c0,2,0.7,3.6,2.1,5
				S233.6,105.7,235.6,105.7z"/>
		</g>
	</g>
</g>
</svg>
